<?xml version="1.0" encoding="UTF-8"?>
<svg width="48px" height="48px" viewBox="0 0 48 48" version="1.1" xmlns="http://www.w3.org/2000/svg" xmlns:xlink="http://www.w3.org/1999/xlink">
    <!-- Generator: Sketch 51.3 (57544) - http://www.bohemiancoding.com/sketch -->
    <title>48x48/COMMUNICATION/email-send</title>
    <desc>Created with Sketch.</desc>
    <defs></defs>
    <g id="48x48/COMMUNICATION/email-send" stroke="none" stroke-width="1" fill="none" fill-rule="evenodd">
        <g id="email-send">
            <g id="Bounding_Boxes">
                <polygon id="Shape" points="0 0 48 0 48 48 0 48"></polygon>
            </g>
            <path d="M40,20 C41.1045695,20 42,20.8954305 42,22 L42,26 C42,27.1045695 41.1045695,28 40,28 C38.8954305,28 38,27.1045695 38,26 L38,22 C38,20.8954305 38.8954305,20 40,20 Z M37.9911509,16.0000004 L37.9939143,11.5884373 C37.9941154,11.3675235 37.8151924,11.1882744 37.5942786,11.1880733 C37.5146982,11.1880009 37.4369049,11.2116677 37.3708479,11.2560471 L14.3222211,26.7409062 C14.1388481,26.8641024 14.0900653,27.1126258 14.2132615,27.2959988 C14.261008,27.3670677 14.3302984,27.4209411 14.4109434,27.4496969 L20.5975711,29.6556828 C20.8949581,29.7617231 21.2268969,29.6829378 21.444912,29.4545675 L34.1154511,16.1822062 C34.3012433,15.9585901 34.6212256,15.9379469 34.8301517,16.1360983 C35.0159817,16.3123448 35.0542665,16.6069553 34.9204835,16.8312229 L26.3873756,31.3676595 L25.1177814,36.2247071 C25.0898474,36.3315735 25.1538347,36.4408508 25.2607011,36.4687849 C25.3331395,36.4877197 25.4100871,36.4646088 25.4601049,36.4088946 L28.5092705,33.0124689 C28.7262327,32.7707974 29.0677712,32.6842766 29.3736257,32.7935046 L31.3962612,33.5158362 L37.4378023,35.6734161 C37.6458474,35.747714 37.8747316,35.6392905 37.9490295,35.4312454 C37.9644076,35.3881845 37.9722887,35.3428057 37.9723304,35.2970812 L37.9753323,32.0000003 C37.975958,30.8958736 38.871205,30.0011336 39.975332,30.0011336 L39.9753336,29.9985326 C41.0799031,29.9985326 41.9753336,30.8939631 41.9753336,31.9985326 C41.9753336,31.9990219 41.9753335,31.9995112 41.9753331,32.0000005 L41.9677591,40.3201867 C41.967499,40.6058437 41.8491059,40.873933 41.6487116,41.0426709 C41.511761,41.1579961 41.3475236,41.2175559 41.1812988,41.2165477 C41.1043138,41.2160808 41.0269479,41.2025451 40.951558,41.1756847 L30.0509786,37.2828264 L24.2480905,43.7465876 C24.0982883,43.9135597 23.9000102,44.0012086 23.6986709,43.9999874 C23.5959194,43.9993642 23.4924821,43.9755777 23.3940945,43.9274914 C23.2368942,43.8506627 23.1109313,43.7184237 23.0107088,43.5285783 L17.9787945,32.9716758 L6.55496279,28.8919933 C6.25748723,28.7857479 6.04196309,28.488329 6.00544308,28.1335124 C5.96892306,27.7786958 6.11841611,27.4336583 6.386458,27.2535259 L40.8152936,4.12305169 C41.0581821,3.95979812 41.3595259,3.95892246 41.6043964,4.120809 C41.8492671,4.28260543 42.0002942,4.58233652 41.9999996,4.9059309 L41.9898991,15.9999994 C41.9890476,17.1039662 41.0938668,17.9984567 39.9898997,17.9984567 L39.9898981,18.0012524 C38.8853286,18.0012524 37.9898981,17.1058219 37.9898981,16.0012524 C37.9898981,16.0008348 37.9898982,16.0004172 37.9898985,15.9999996 L37.9911509,16.0000004 Z" fill="#31303D"></path>
        </g>
    </g>
</svg>