<?xml version="1.0" encoding="UTF-8"?>
<svg width="48px" height="48px" viewBox="0 0 48 48" version="1.1" xmlns="http://www.w3.org/2000/svg" xmlns:xlink="http://www.w3.org/1999/xlink">
    <!-- Generator: Sketch 52.5 (67469) - http://www.bohemiancoding.com/sketch -->
    <title>48x48/SOCIAL ACCOUNT/linkedin</title>
    <desc>Created with Sketch.</desc>
    <g id="48x48/SOCIAL-ACCOUNT/linkedin" stroke="none" stroke-width="1" fill="none" fill-rule="evenodd">
        <g id="linkedin">
            <g id="Bounding_Boxes" fill="#FFFFFF" fill-opacity="0.01">
                <polygon id="Shape" points="0 0 48 0 48 48 0 48"></polygon>
            </g>
            <path d="M16.0019374,16 C14.8950597,16 14,15.1036487 14,13.9993542 C14,12.8963513 14.8950597,12 16.0019374,12 C17.1049403,12 18,12.8963513 18,13.9993542 C18,15.1036487 17.1049403,16 16.0019374,16 Z M29,18 L30,18 C33.3137085,18 36,20.6862915 36,24 L36,33.2 C36,33.6418278 35.6418278,34 35.2,34 L32.8,34 C32.3581722,34 32,33.6418278 32,33.2 L32,24 C32,22.8954305 31.1045695,22 30,22 L29,22 C27.3431458,22 26,23.3431458 26,25 L26,33.2 C26,33.6418278 25.6418278,34 25.2,34 L22.8,34 C22.3581722,34 22,33.6418278 22,33.2 L22,18.8 C22,18.3581722 22.3581722,18 22.8,18 L25.3263688,18 C25.6984051,18 26,18.3015949 26,18.6736312 C26.9092554,18.241691 27.9264027,18 29,18 Z M14,33.2 L14,18.8 C14,18.3581722 14.3581722,18 14.8,18 L17.2,18 C17.6418278,18 18,18.3581722 18,18.8 L18,33.2 C18,33.6418278 17.6418278,34 17.2,34 L14.8,34 C14.3581722,34 14,33.6418278 14,33.2 Z M16,8 C11.581722,8 8,11.581722 8,16 L8,32 C8,36.418278 11.581722,40 16,40 L32,40 C36.418278,40 40,36.418278 40,32 L40,16 C40,11.581722 36.418278,8 32,8 L16,8 Z M16,4 L32,4 C38.627417,4 44,9.372583 44,16 L44,32 C44,38.627417 38.627417,44 32,44 L16,44 C9.372583,44 4,38.627417 4,32 L4,16 C4,9.372583 9.372583,4 16,4 Z" fill="#31303D"></path>
        </g>
    </g>
</svg>