<?xml version="1.0" encoding="UTF-8"?>
<svg width="48px" height="48px" viewBox="0 0 48 48" version="1.1" xmlns="http://www.w3.org/2000/svg" xmlns:xlink="http://www.w3.org/1999/xlink">
    <!-- Generator: Sketch 52.4 (67378) - http://www.bohemiancoding.com/sketch -->
    <title>48x48/SOCIAL ACCOUNT/twitter</title>
    <desc>Created with Sketch.</desc>
    <g id="48x48/SOCIAL-ACCOUNT/twitter" stroke="none" stroke-width="1" fill="none" fill-rule="evenodd">
        <g id="twitter">
            <g id="Bounding_Boxes">
                <polygon id="Shape" points="0 0 48 0 48 48 0 48"></polygon>
            </g>
            <path d="M9.56012606,18.2691201 C10.6639204,18.3104948 11.5251817,19.2388376 11.483807,20.342632 C11.4424324,21.4464263 10.5140895,22.3076876 9.41029518,22.266313 C7.84843889,22.2077683 6.34301117,21.7657675 5.00330005,20.9913951 C4.04698999,20.438634 3.71984891,19.2152901 4.27261001,18.25898 C4.82537112,17.3026699 6.04871501,16.9755289 7.00502508,17.52829 C7.78578901,17.9795829 8.65658125,18.2352516 9.56012606,18.2691201 Z M11.6088408,25.3719753 C12.6688758,25.0614927 13.7798999,25.669125 14.0903825,26.7291601 C14.4008651,27.7891952 13.7932328,28.9002193 12.7331977,29.2107019 C11.9031339,29.4538262 11.0386448,29.5748031 10.1454094,29.5748031 C9.51793411,29.5748031 8.90443776,29.5144378 8.30682908,29.3930401 C7.22436798,29.1731498 6.5251162,28.1173853 6.74500651,27.0349242 C6.96489682,25.9524631 8.02066124,25.2532114 9.10312234,25.4731017 C9.43579375,25.5406803 9.78258651,25.5748031 10.1454094,25.5748031 C10.6625986,25.5748031 11.1485161,25.5068037 11.6088408,25.3719753 Z M40.7108154,17.9659354 C40.4059753,18.1590576 40.0627747,18.362426 39.9872109,18.8107656 C39.5875999,31.458734 29.8601626,42 16,42 C12.3964651,42 7.36412811,40.7210816 4.93830018,38.7373137 C4.37804985,38.2791581 4,37.7520783 4,36.8605184 C4,35.586876 5.01515487,34.503937 6.33426195,34.503937 C8.22903327,34.503937 12.1053193,32.6149424 14.7291236,30.4556965 C15.5820189,29.7538109 16.8424178,29.8762284 17.5443035,30.7291236 C18.2461891,31.5820189 18.1237716,32.8424178 17.2708764,33.5443035 C15.4845936,35.0143155 13.2877811,36.3571609 11.1707781,37.2737223 C12.7918143,37.7207956 14.5814586,38 16,38 C27.841604,38 36,28.8883545 36,18 C36,17.0454314 36.2272856,16.5561375 37.6806048,15.486813 C37.0985009,14.9043755 36.5854826,14.3546406 36.1415498,13.8376084 C35.8487191,13.4965592 34.727934,12.1286432 34.5101711,11.8855011 C33.4168575,10.6647668 32.0108621,10 30.4615261,10 C27.3725467,10 24.8146939,12.6528869 24.7649467,15.9799425 L24.7919359,16.2344279 C24.9792851,18.0041237 23.6965397,19.5906222 21.9268439,19.7779714 C21.6804107,19.8040601 21.4317906,19.8016335 21.1859136,19.7707398 C15.0076777,18.9944626 10.3143008,16.2343372 6.42115727,11.2277034 C5.74311541,10.3557326 5.90032584,9.09919913 6.7722966,8.42115727 C7.64426736,7.74311541 8.90080087,7.90032584 9.57884273,8.7722966 C12.6362888,12.7042125 16.1274261,14.886489 20.7721476,15.6681875 C20.9794759,10.3160724 25.2218019,6 30.4615261,6 C33.1808441,6 35.6575027,7.17098568 37.4898289,9.21686108 C37.7787374,9.53944055 38.9367851,10.9528354 39.1763642,11.2318644 C39.9038046,12.0790875 40.390625,12.7119446 40.9698672,12.9685075 C41.5491095,13.2250705 43.2878946,13.1035551 43.7855291,14.0896756 C44.2831637,15.0757961 43.8871675,16.2786172 42.901047,16.7762518 C41.6084714,17.4285354 41.3759517,17.5445583 40.7108154,17.9659354 Z" fill="#31303D"></path>
        </g>
    </g>
</svg>